name Walk7.mot
datacolumns 19
datarows 20
range 1.45500000 1.55000000
endheader

                time	   L_ground_force_vx	   L_ground_force_vy	   L_ground_force_vz	   L_ground_force_px	   L_ground_force_py	   L_ground_force_pz	   R_ground_force_vx	   R_ground_force_vy	   R_ground_force_vz	   R_ground_force_px	   R_ground_force_py	   R_ground_force_pz	   L_ground_torque_x	   L_ground_torque_y	   L_ground_torque_z	   R_ground_torque_x	   R_ground_torque_y	   R_ground_torque_z	
          1.45500000	          0.00000000	         -0.00000004	          0.00000001	         -0.00000000	          0.00000000	         -0.00000000	        -15.43709513	        119.57887128	         11.75110100	         -0.11831975	          0.00000000	          0.13348782	          0.00000000	          0.00000000	          0.00000000	          0.00000000	          0.03449613	          0.00000000	
          1.46000000	          0.00000000	         -0.00000005	          0.00000001	         -0.00000000	          0.00000000	         -0.00000000	        -21.86844430	        164.49952489	         14.90581818	         -0.14736720	          0.00000000	          0.16667090	          0.00000000	          0.00000000	          0.00000000	          0.00000000	          0.07677404	          0.00000000	
          1.46500000	          0.00000001	         -0.00000007	          0.00000001	         -0.00000000	          0.00000000	         -0.00000000	        -29.22540616	        214.31505170	         17.98732506	         -0.17501205	          0.00000000	          0.19849591	          0.00000000	          0.00000000	          0.00000000	          0.00000000	          0.13343438	          0.00000000	
          1.47000000	          0.00000001	         -0.00000008	          0.00000001	         -0.00000000	          0.00000000	         -0.00000000	        -37.30772546	        266.21850645	         20.58251488	         -0.19934799	          0.00000000	          0.22697506	          0.00000000	          0.00000000	          0.00000000	          0.00000000	          0.20714853	          0.00000000	
          1.47500000	          0.00000001	         -0.00000009	          0.00000001	         -0.00000000	          0.00000000	         -0.00000000	        -46.02144062	        317.35490062	         22.17077414	         -0.21935623	          0.00000000	          0.25112015	          0.00000000	          0.00000000	          0.00000000	          0.00000000	          0.30295079	          0.00000000	
          1.48000000	          0.00000001	         -0.00000009	          0.00000001	         -0.00000000	          0.00000000	         -0.00000000	        -55.36052288	        365.83535220	         22.25355844	         -0.23469487	          0.00000000	          0.27066016	          0.00000000	          0.00000000	          0.00000000	          0.00000000	          0.42840252	          0.00000000	
          1.48500000	          0.00000001	         -0.00000008	          0.00000001	         -0.00000000	          0.00000000	         -0.00000000	        -65.29671176	        410.70577795	         20.49437065	         -0.24548896	          0.00000000	          0.28579480	          0.00000000	          0.00000000	          0.00000000	          0.00000000	          0.59176411	          0.00000000	
          1.49000000	          0.00000001	         -0.00000006	          0.00000000	          0.00000000	          0.00000000	          0.00000000	        -75.71020016	        451.61119801	         16.78636464	         -0.25216130	          0.00000000	          0.29700179	          0.00000000	          0.00000000	          0.00000000	          0.00000000	          0.79909401	          0.00000000	
          1.49500000	          0.00000001	         -0.00000002	         -0.00000000	          0.00000000	          0.00000000	          0.00000000	        -86.37957429	        488.75603809	         11.24836657	         -0.25530389	          0.00000000	          0.30489323	          0.00000000	          0.00000000	          0.00000000	          0.00000000	          1.05157658	          0.00000000	
          1.50000000	          0.00000001	          0.00000005	         -0.00000001	          0.00000000	          0.00000000	          0.00000000	        -97.03844245	        522.83920440	          4.18900741	         -0.25558692	          0.00000000	          0.31011139	          0.00000000	          0.00000000	          0.00000000	          0.00000000	          1.34270593	          0.00000000	
          1.50500000	          0.00000000	          0.00000014	         -0.00000003	          0.00000000	          0.00000000	          0.00000000	       -107.45264135	        554.71977557	         -3.92094916	         -0.25370047	          0.00000000	          0.31325931	          0.00000000	          0.00000000	          0.00000000	          0.00000000	          1.65627175	          0.00000000	
          1.51000000	         -0.00000000	          0.00000028	         -0.00000004	          0.00000000	          0.00000000	          0.00000000	       -117.43025405	        585.03412215	        -12.47462724	         -0.25031218	          0.00000000	          0.31486143	          0.00000000	          0.00000000	          0.00000000	          0.00000000	          1.96662054	          0.00000000	
          1.51500000	         -0.00000002	          0.00000046	         -0.00000007	          0.00000000	          0.00000000	          0.00000000	       -126.75480768	        614.11458786	        -20.80317905	         -0.24602447	          0.00000000	          0.31535030	          0.00000000	         -0.00000000	          0.00000000	          0.00000000	          2.24390927	          0.00000000	
          1.52000000	         -0.00000004	          0.00000068	         -0.00000009	          0.00000000	          0.00000000	          0.00000000	       -135.13893386	        642.22483178	        -28.32394121	         -0.24134026	          0.00000000	          0.31507147	          0.00000000	         -0.00000000	          0.00000000	          0.00000000	          2.46424787	          0.00000000	
          1.52500000	         -0.00000006	          0.00000093	         -0.00000012	          0.00000000	          0.00000000	          0.00000000	       -142.27307348	        669.72967441	        -34.64781809	         -0.23665313	          0.00000000	          0.31429280	          0.00000000	         -0.00000000	          0.00000000	          0.00000000	          2.61613224	          0.00000000	
          1.53000000	         -0.00000009	          0.00000122	         -0.00000015	          0.00000000	          0.00000000	          0.00000000	       -147.92094748	        696.96487260	        -39.55905980	         -0.23225387	          0.00000000	          0.31321693	          0.00000000	         -0.00000000	          0.00000000	          0.00000000	          2.70031724	          0.00000000	
          1.53500000	         -0.00000013	          0.00000152	         -0.00000018	          0.00000000	          0.00000000	          0.00000000	       -151.95542663	        724.03367556	        -42.96449336	         -0.22833567	          0.00000000	          0.31199248	          0.00000000	         -0.00000000	          0.00000000	          0.00000000	          2.72526637	          0.00000000	
          1.54000000	         -0.00000017	          0.00000180	         -0.00000020	          0.00000000	          0.00000000	          0.00000000	       -154.33790367	        750.77503357	        -44.87342306	         -0.22500308	          0.00000000	          0.31072424	          0.00000000	         -0.00000000	          0.00000000	          0.00000000	          2.70039341	          0.00000000	
          1.54500000	         -0.00000022	          0.00000201	         -0.00000021	          0.00000000	          0.00000000	          0.00000000	       -155.09651195	        776.82258636	        -45.37907861	         -0.22228852	          0.00000000	          0.30948343	          0.00000000	         -0.00000000	          0.00000000	          0.00000000	          2.63187392	          0.00000000	
          1.55000000	         -0.00000026	          0.00000209	         -0.00000020	          0.00000000	          0.00000000	          0.00000000	       -154.31816618	        801.63316423	        -44.63853350	         -0.22017023	          0.00000000	          0.30831624	          0.00000000	         -0.00000000	          0.00000000	          0.00000000	          2.52346154	          0.00000000	
